0
SECTION
2
HEADER
9
$INSUNITS
70
4
9
$ACADVER
1
AC1014
9
$HANDSEED
5
FFFF
0
ENDSEC
0
SECTION
2
TABLES
0
TABLE
2
VPORT
5
8
100
AcDbSymbolTable
0
ENDTAB
0
TABLE
2
LTYPE
5
5
100
AcDbSymbolTable
0
LTYPE
5
14
100
AcDbSymbolTableRecord
100
AcDbLinetypeTableRecord
2
BYBLOCK
70
0
0
LTYPE
5
15
100
AcDbSymbolTableRecord
100
AcDbLinetypeTableRecord
2
BYLAYER
70
0
0
ENDTAB
0
TABLE
2
LAYER
5
2
100
AcDbSymbolTable
70
2
0
LAYER
5
50
100
AcDbSymbolTableRecord
100
AcDbLayerTableRecord
2
0
70
0
6
CONTINUOUS
0
ENDTAB
0
TABLE
2
STYLE
5
3
100
AcDbSymbolTable
70
1
0
STYLE
5
11
100
AcDbSymbolTableRecord
100
AcDbTextStyleTableRecord
2
STANDARD
70
0
0
ENDTAB
0
TABLE
2
VIEW
5
6
100
AcDbSymbolTable
70
0
0
ENDTAB
0
TABLE
2
UCS
5
7
100
AcDbSymbolTable
70
0
0
ENDTAB
0
TABLE
2
APPID
5
9
100
AcDbSymbolTable
70
2
0
APPID
5
12
100
AcDbSymbolTableRecord
100
AcDbRegAppTableRecord
2
ACAD
70
0
0
ENDTAB
0
TABLE
2
DIMSTYLE
5
A
100
AcDbSymbolTable
70
1
0
ENDTAB
0
TABLE
2
BLOCK_RECORD
5
1
100
AcDbSymbolTable
70
1
0
BLOCK_RECORD
5
1F
100
AcDbSymbolTableRecord
100
AcDbBlockTableRecord
2
*MODEL_SPACE
0
BLOCK_RECORD
5
1B
100
AcDbSymbolTableRecord
100
AcDbBlockTableRecord
2
*PAPER_SPACE
0
ENDTAB
0
ENDSEC
0
SECTION
2
BLOCKS
0
BLOCK
5
20
100
AcDbEntity
100
AcDbBlockBegin
2
*MODEL_SPACE
0
ENDBLK
5
21
100
AcDbEntity
100
AcDbBlockEnd
0
BLOCK
5
1C
100
AcDbEntity
100
AcDbBlockBegin
2
*PAPER_SPACE
0
ENDBLK
5
1D
100
AcDbEntity
100
AcDbBlockEnd
0
ENDSEC
0
SECTION
2
ENTITIES
0
LWPOLYLINE
5
100
100
AcDbEntity
8
0
100
AcDbPolyline
90
96
70
1
43
0.0
10
37.757625579833984
20
3.54726642370224
10
37.876167297363281
20
3.6738330125808716
10
38.002736568450928
20
3.7923750281333923
10
38.13678503036499
20
3.9023858308792114
10
38.277740478515625
20
4.0033936500549316
10
38.424999713897705
20
4.0949663519859314
10
38.577935695648193
20
4.1767120361328125
10
38.735885620117188
20
4.2482796311378479
10
38.898186683654785
20
4.3093642592430115
10
39.064128398895264
20
4.3597030639648438
10
39.233009815216064
20
4.3990802764892578
10
39.404103755950928
20
4.4273287057876587
10
39.576680660247803
20
4.444325864315033
10
39.750001430511475
20
4.4499999284744263
10
39.923322200775146
20
4.4443264603614807
10
40.09589672088623
20
4.4273290038108826
10
40.266990661621094
20
4.3990811705589294
10
40.435872077941895
20
4.3597030639648438
10
40.601816177368164
20
4.309365451335907
10
40.764117240905762
20
4.2482811212539673
10
40.922064781188965
20
4.1767129302024841
10
41.075000762939453
20
4.0949678421020508
10
41.222262382507324
20
4.0033945441246033
10
41.36322021484375
20
3.9023864269256592
10
41.497268676757812
20
3.792375922203064
10
41.623835563659668
20
3.6738333106040955
10
41.742377281188965
20
3.5472670197486877
10
41.852388381958008
20
3.4132182598114014
10
41.953396797180176
20
3.2722616195678711
10
42.044968605041504
20
3.1250002980232239
10
42.126712799072266
20
2.9720655083656311
10
42.198281288146973
20
2.8141114115715027
10
42.259364128112793
20
2.6518151164054871
10
42.309703826904297
20
2.4858708679676056
10
42.349085807800293
20
2.3169898986816406
10
42.377333641052246
20
2.1458950638771057
10
42.394328117370605
20
1.9733189046382904
10
42.400002479553223
20
-0.19999949261546135
10
42.394328117370605
20
-2.3733177781105042
10
42.377333641052246
20
-2.5458940863609314
10
42.349085807800293
20
-2.7169889211654663
10
42.309703826904297
20
-2.8858700394630432
10
42.259364128112793
20
-3.0518141388893127
10
42.198281288146973
20
-3.2141104340553284
10
42.126717567443848
20
-3.3720645308494568
10
42.044968605041504
20
-3.5249996185302734
10
41.953396797180176
20
-3.6722612380981445
10
41.852388381958008
20
-3.8132178783416748
10
41.742377281188965
20
-3.9472672343254089
10
41.623835563659668
20
-4.0738335251808167
10
41.497268676757812
20
-4.1923761367797852
10
41.36322021484375
20
-4.3023872375488281
10
41.222262382507324
20
-4.4033956527709961
10
41.075000762939453
20
-4.4949683547019958
10
40.922064781188965
20
-4.5767137408256531
10
40.76411247253418
20
-4.6482822299003601
10
40.601816177368164
20
-4.7093659639358521
10
40.435867309570312
20
-4.7597047686576843
10
40.266985893249512
20
-4.7990819811820984
10
40.09589672088623
20
-4.8273298144340515
10
39.923317432403564
20
-4.8443269729614258
10
39.749996662139893
20
-4.8500004410743713
10
39.576680660247803
20
-4.8443260788917542
10
39.404103755950928
20
-4.827328622341156
10
39.233005046844482
20
-4.799080491065979
10
39.064126014709473
20
-4.7597026824951172
10
38.898181915283203
20
-4.7093629837036133
10
38.735885620117188
20
-4.6482786536216736
10
38.577930927276611
20
-4.5767107605934143
10
38.424994945526123
20
-4.4949647784233093
10
38.277733325958252
20
-4.4033908843994141
10
38.136775493621826
20
-4.3023824691772461
10
38.002727031707764
20
-4.1923710703849792
10
37.87616491317749
20
-4.073827862739563
10
37.757623195648193
20
-3.9472609758377075
10
37.647609710693359
20
-3.8132122159004211
10
37.546603679656982
20
-3.6722555756568909
10
37.455031871795654
20
-3.5249945521354675
10
37.373282909393311
20
-3.3720594644546509
10
37.301719188690186
20
-3.2141056656837463
10
37.240636348724365
20
-3.0518093705177307
10
37.190296649932861
20
-2.8858655691146851
10
37.150917053222656
20
-2.7169844508171082
10
37.122673988342285
20
-2.5458899140357971
10
37.105674743652344
20
-2.3733142018318176
10
37.100002765655518
20
-0.19999619573354721
10
37.105674743652344
20
1.9733217358589172
10
37.122673988342285
20
2.1458974480628967
10
37.150921821594238
20
2.3169921338558197
10
37.190301418304443
20
2.4858728051185608
10
37.240638732910156
20
2.6518163084983826
10
37.301719188690186
20
2.8141126036643982
10
37.373287677764893
20
2.9720664024353027
10
37.455031871795654
20
3.1250008940696716
10
37.546608448028564
20
3.2722616195678711
10
37.647614479064941
20
3.4132182598114014
0
LWPOLYLINE
5
101
100
AcDbEntity
8
0
100
AcDbPolyline
90
32
70
1
43
0.0
10
103.2222843170166
20
34.772374629974365
10
103.82843017578125
20
34.274921417236328
10
104.32588577270508
20
33.668777942657471
10
104.69552040100098
20
32.977230548858643
10
104.92314338684082
20
32.226855754852295
10
105
20
31.446495056152344
10
104.92314338684082
20
30.666134357452393
10
104.69552040100098
20
29.915761947631836
10
104.32588577270508
20
29.224214553833008
10
103.82843017578125
20
28.618068695068359
10
103.2222843170166
20
28.120617866516113
10
102.53073692321777
20
27.750976085662842
10
101.78035736083984
20
27.523353099822998
10
101.00000381469727
20
27.446496486663818
10
100.21964073181152
20
27.523353099822998
10
99.469261169433594
20
27.750978469848633
10
98.77772331237793
20
28.120617866516113
10
98.171567916870117
20
28.618068695068359
10
97.674121856689453
20
29.224216938018799
10
97.304487228393555
20
29.915764331817627
10
97.076864242553711
20
30.666139125823975
10
96.999998092651367
20
31.446499824523926
10
97.076864242553711
20
32.226860523223877
10
97.304487228393555
20
32.977235317230225
10
97.674131393432617
20
33.668782711029053
10
98.171577453613281
20
34.27492618560791
10
98.77772331237793
20
34.772377014160156
10
99.469270706176758
20
35.142014026641846
10
100.21964073181152
20
35.369637012481689
10
101.00000381469727
20
35.44649600982666
10
101.78036689758301
20
35.369637012481689
10
102.53073692321777
20
35.142014026641846
0
LWPOLYLINE
5
102
100
AcDbEntity
8
0
100
AcDbPolyline
90
224
70
1
43
0.0
10
32.681310176849365
20
-7.4036788940429688
10
32.782478332519531
20
-7.4867057800292969
10
32.888858318328857
20
-7.562938928604126
10
32.999999523162842
20
-7.6320505142211914
10
33.11542272567749
20
-7.6937448978424072
10
33.234634399414062
20
-7.7477580308914185
10
33.35712194442749
20
-7.7938598394393921
10
33.48236083984375
20
-7.8318512439727783
10
33.609817028045654
20
-7.8615695238113403
10
33.738949298858643
20
-7.8828889131546021
10
33.869194984436035
20
-7.8957176208496094
10
34.000000953674316
20
-7.8999996185302734
10
43.000001907348633
20
-7.8999996185302734
10
43.134269714355469
20
-7.8974783420562744
10
43.274884223937988
20
-7.8899240493774414
10
43.421244621276855
20
-7.8773701190948486
10
43.572726249694824
20
-7.8598701953887939
10
43.728671073913574
20
-7.8374975919723511
10
43.888416290283203
20
-7.8103512525558472
10
44.051284790039062
20
-7.7785444259643555
10
44.216570854187012
20
-7.7422153949737549
10
44.38356876373291
20
-7.7015179395675659
10
44.551563262939453
20
-7.6566284894943237
10
44.719843864440918
20
-7.6077377796173096
10
44.88767147064209
20
-7.5550550222396851
10
45.054340362548828
20
-7.4988049268722534
10
45.219135284423828
20
-7.439231276512146
10
45.381350517272949
20
-7.3765867948532104
10
45.540289878845215
20
-7.3111408948898315
10
45.695276260375977
20
-7.2431737184524536
10
45.845637321472168
20
-7.1729755401611328
10
45.990738868713379
20
-7.1008473634719849
10
46.129951477050781
20
-7.027098536491394
10
46.262688636779785
20
-6.9520443677902222
10
46.388373374938965
20
-6.8760061264038086
10
46.506471633911133
20
-6.7993098497390747
10
46.616473197937012
20
-6.7222833633422852
10
75.958819389343262
20
20.455710887908936
10
76.093721389770508
20
20.552046298980713
10
76.23382568359375
20
20.648276805877686
10
76.378998756408691
20
20.744302272796631
10
76.529068946838379
20
20.840020179748535
10
76.683893203735352
20
20.935323238372803
10
76.84328556060791
20
21.030113697052002
10
77.007088661193848
20
21.12429141998291
10
77.175126075744629
20
21.217751502990723
10
77.347216606140137
20
21.310393810272217
10
77.523164749145508
20
21.402122974395752
10
77.702789306640625
20
21.492838859558105
10
77.885909080505371
20
21.582443714141846
10
78.072328567504883
20
21.670842170715332
10
78.261828422546387
20
21.757938861846924
10
78.454208374023438
20
21.843640804290771
10
78.649277687072754
20
21.927857398986816
10
78.846826553344727
20
22.010495662689209
10
79.046630859375
20
22.091472148895264
10
79.248480796813965
20
22.170693874359131
10
79.452166557312012
20
22.248082160949707
10
79.657464027404785
20
22.323548793792725
10
79.864153861999512
20
22.397017478942871
10
80.072021484375
20
22.468404769897461
10
80.280828475952148
20
22.537639141082764
10
80.49036979675293
20
22.604644298553467
10
80.700407028198242
20
22.669346332550049
10
80.910730361938477
20
22.731678485870361
10
81.121091842651367
20
22.791574001312256
10
81.331291198730469
20
22.848968505859375
10
81.54109001159668
20
22.903800010681152
10
81.750259399414062
20
22.956008911132812
10
81.958589553833008
20
23.005540370941162
10
82.165842056274414
20
23.05234432220459
10
82.371797561645508
20
23.096365928649902
10
82.57624626159668
20
23.137557506561279
10
82.778959274291992
20
23.175880908966064
10
82.979736328125
20
23.211290836334229
10
83.178339004516602
20
23.243749141693115
10
83.374567031860352
20
23.27322244644165
10
83.568210601806641
20
23.29967737197876
10
83.759050369262695
20
23.323087692260742
10
83.946905136108398
20
23.343427181243896
10
84.131546020507812
20
23.360676765441895
10
84.312801361083984
20
23.374812602996826
10
84.490461349487305
20
23.385825157165527
10
84.664335250854492
20
23.393697738647461
10
84.83424186706543
20
23.398425579071045
10
85
20
23.400001525878906
10
108.00000190734863
20
23.400001525878906
10
108.26106071472168
20
23.417112827301025
10
108.51763725280762
20
23.468148708343506
10
108.7653636932373
20
23.552243709564209
10
109.0000057220459
20
23.667953014373779
10
109.21751976013184
20
23.813295364379883
10
109.41421508789062
20
23.985788822174072
10
109.58670616149902
20
24.182479381561279
10
109.73204612731934
20
24.400002956390381
10
109.84775543212891
20
24.634635448455811
10
109.93185997009277
20
24.882364273071289
10
109.98289108276367
20
25.1389479637146
10
110
20
25.400002002716064
10
110
20
37.400002479553223
10
109.98289108276367
20
37.661054134368896
10
109.93185997009277
20
37.917640209197998
10
109.84775543212891
20
38.165366649627686
10
109.73204612731934
20
38.400001525878906
10
109.58670616149902
20
38.617522716522217
10
109.41421508789062
20
38.814218044281006
10
109.21751976013184
20
38.986709117889404
10
109.0000057220459
20
39.132053852081299
10
108.7653636932373
20
39.247760772705078
10
108.51763725280762
20
39.33185338973999
10
108.26106071472168
20
39.382894039154053
10
108.00000190734863
20
39.400002956390381
10
85
20
39.400002956390381
10
84.833850860595703
20
39.399182796478271
10
84.662790298461914
20
39.396724700927734
10
84.486989974975586
20
39.392635822296143
10
84.306640625
20
39.386913776397705
10
84.121942520141602
20
39.379565715789795
10
83.933076858520508
20
39.370601177215576
10
83.740262985229492
20
39.360032081604004
10
83.543701171875
20
39.347865581512451
10
83.343610763549805
20
39.334118366241455
10
83.140182495117188
20
39.318802356719971
10
82.933645248413086
20
39.301934242248535
10
82.724237442016602
20
39.283535480499268
10
82.51215934753418
20
39.263617992401123
10
82.297658920288086
20
39.242210388183594
10
82.08094596862793
20
39.219338893890381
10
81.862258911132812
20
39.195015430450439
10
81.641836166381836
20
39.169273376464844
10
81.419916152954102
20
39.142143726348877
10
81.196737289428711
20
39.113647937774658
10
80.972518920898438
20
39.083824157714844
10
80.747528076171875
20
39.052696228027344
10
80.521993637084961
20
39.020307064056396
10
80.296154022216797
20
38.986682891845703
10
80.070257186889648
20
38.95186185836792
10
79.844527244567871
20
38.915882110595703
10
79.619231224060059
20
38.8787841796875
10
79.394607543945312
20
38.840606212615967
10
79.17088508605957
20
38.801388740539551
10
78.948297500610352
20
38.76117467880249
10
78.727097511291504
20
38.720004558563232
10
78.507523536682129
20
38.677926063537598
10
78.289794921875
20
38.634979724884033
10
78.074159622192383
20
38.591213226318359
10
77.860846519470215
20
38.546676635742188
10
77.650079727172852
20
38.501415252685547
10
77.44208812713623
20
38.455479145050049
10
77.237086296081543
20
38.408915996551514
10
77.035303115844727
20
38.361775875091553
10
76.836943626403809
20
38.314106464385986
10
76.642241477966309
20
38.265960216522217
10
76.451387405395508
20
38.217391967773438
10
76.264586448669434
20
38.168454170227051
10
76.082048416137695
20
38.119194507598877
10
75.90395450592041
20
38.069667816162109
10
75.730509757995605
20
38.019928932189941
10
75.561890602111816
20
37.970027923583984
10
75.39827823638916
20
37.920017242431641
10
75.239853858947754
20
37.869956493377686
10
46.90406322479248
20
31.362018585205078
10
46.775245666503906
20
31.321990489959717
10
46.638422012329102
20
31.2821364402771
10
46.49416446685791
20
31.242620944976807
10
46.34310245513916
20
31.203618049621582
10
46.185879707336426
20
31.165292263031006
10
46.023168563842773
20
31.127810478210449
10
45.855660438537598
20
31.091330051422119
10
45.684084892272949
20
31.056010723114014
10
45.509161949157715
20
31.022000312805176
10
45.331649780273438
20
30.989444255828857
10
45.15230655670166
20
30.958487987518311
10
44.97189998626709
20
30.929257869720459
10
44.791202545166016
20
30.901877880096436
10
44.610991477966309
20
30.876471996307373
10
44.432034492492676
20
30.853145122528076
10
44.255099296569824
20
30.831995010375977
10
44.080939292907715
20
30.813117027282715
10
43.910307884216309
20
30.796587467193604
10
43.743929862976074
20
30.782480239868164
10
43.582520484924316
20
30.770854949951172
10
43.426766395568848
20
30.761761665344238
10
43.277344703674316
20
30.755236148834229
10
43.134884834289551
20
30.751311779022217
10
43.000001907348633
20
30.750000476837158
10
34.000000953674316
20
30.750000476837158
10
33.869194984436035
20
30.745718479156494
10
33.738949298858643
20
30.732889175415039
10
33.609817028045654
20
30.711572170257568
10
33.48236083984375
20
30.681853294372559
10
33.35712194442749
20
30.643861293792725
10
33.234634399414062
20
30.597760677337646
10
33.11542272567749
20
30.543744564056396
10
32.999999523162842
20
30.482051372528076
10
32.888858318328857
20
30.412938594818115
10
32.782478332519531
20
30.336706638336182
10
32.681310176849365
20
30.253679752349854
10
32.585785388946533
20
30.164213180541992
10
32.496318817138672
20
30.068690776824951
10
32.413291931152344
20
29.967525005340576
10
32.33705997467041
20
29.861142635345459
10
32.26794958114624
20
29.750001430511475
10
32.206254005432129
20
29.634578227996826
10
32.15224027633667
20
29.515368938446045
10
32.106139659881592
20
29.392879009246826
10
32.068150043487549
20
29.267637729644775
10
32.038428783416748
20
29.140181541442871
10
32.017109394073486
20
29.011054039001465
10
32.004280090332031
20
28.880805969238281
10
32.000000476837158
20
28.75
10
32.000000476837158
20
-5.899999737739563
10
32.004280090332031
20
-6.0308057069778442
10
32.017109394073486
20
-6.1610519886016846
10
32.038428783416748
20
-6.2901800870895386
10
32.068150043487549
20
-6.4176380634307861
10
32.106139659881592
20
-6.5428781509399414
10
32.15224027633667
20
-6.6653662919998169
10
32.206254005432129
20
-6.7845767736434937
10
32.26794958114624
20
-6.8999999761581421
10
32.33705997467041
20
-7.011139988899231
10
32.413291931152344
20
-7.1175223588943481
10
32.496318817138672
20
-7.2186911106109619
10
32.585785388946533
20
-7.3142129182815552
0
LWPOLYLINE
5
103
100
AcDbEntity
8
0
100
AcDbPolyline
90
96
70
1
43
0.0
10
37.365882396697998
20
18.751722574234009
10
37.207927703857422
20
18.82328987121582
10
37.054994106292725
20
18.905035257339478
10
36.907730102539062
20
18.996610641479492
10
36.766774654388428
20
19.097617864608765
10
36.632726192474365
20
19.207628965377808
10
36.506161689758301
20
19.326171875
10
36.387619972229004
20
19.452739953994751
10
36.27760648727417
20
19.586788415908813
10
36.176598072052002
20
19.727745056152344
10
36.085026264190674
20
19.875005483627319
10
36.003282070159912
20
20.027940273284912
10
35.931713581085205
20
20.185894966125488
10
35.870633125305176
20
20.348191261291504
10
35.820293426513672
20
20.514135360717773
10
35.780913829803467
20
20.683016777038574
10
35.752665996551514
20
20.854110717773438
10
35.735671520233154
20
21.026687622070312
10
35.729997158050537
20
23.200004100799561
10
35.735671520233154
20
25.3733229637146
10
35.752670764923096
20
25.545897483825684
10
35.780918598175049
20
25.716993808746338
10
35.820293426513672
20
25.885875225067139
10
35.870633125305176
20
26.051816940307617
10
35.931718349456787
20
26.214113235473633
10
36.003284454345703
20
26.372067928314209
10
36.085031032562256
20
26.524999141693115
10
36.176605224609375
20
26.672263145446777
10
36.277611255645752
20
26.813218593597412
10
36.387622356414795
20
26.947267055511475
10
36.506164073944092
20
27.07383394241333
10
36.632728576660156
20
27.192375659942627
10
36.766777038574219
20
27.30238676071167
10
36.907737255096436
20
27.403392791748047
10
37.054996490478516
20
27.494966983795166
10
37.207932472229004
20
27.576711177825928
10
37.365882396697998
20
27.648282051086426
10
37.528178691864014
20
27.709364891052246
10
37.694122791290283
20
27.759702205657959
10
37.863006591796875
20
27.799079418182373
10
38.034100532531738
20
27.827329635620117
10
38.206677436828613
20
27.844328880310059
10
38.379998207092285
20
27.850000858306885
10
38.553314208984375
20
27.844328880310059
10
38.72589111328125
20
27.827329635620117
10
38.896987438201904
20
27.799081802368164
10
39.065868854522705
20
27.75970458984375
10
39.231812953948975
20
27.709364891052246
10
39.39410924911499
20
27.648284435272217
10
39.552063941955566
20
27.576713562011719
10
39.704997539520264
20
27.494969367980957
10
39.852256774902344
20
27.403395175933838
10
39.993216991424561
20
27.30238676071167
10
40.127267837524414
20
27.192378044128418
10
40.253829956054688
20
27.07383394241333
10
40.372371673583984
20
26.947267055511475
10
40.482382774353027
20
26.813218593597412
10
40.583395957946777
20
26.672263145446777
10
40.674967765808105
20
26.524999141693115
10
40.756711959838867
20
26.372067928314209
10
40.828280448913574
20
26.214110851287842
10
40.889363288879395
20
26.051814556121826
10
40.939702987670898
20
25.885872840881348
10
40.979080200195312
20
25.716989040374756
10
41.007323265075684
20
25.545895099639893
10
41.024322509765625
20
25.373320579528809
10
41.030001640319824
20
23.20000171661377
10
41.024322509765625
20
21.02668285369873
10
41.007328033447266
20
20.854108333587646
10
40.979080200195312
20
20.683009624481201
10
40.939702987670898
20
20.514130592346191
10
40.889363288879395
20
20.348186492919922
10
40.828280448913574
20
20.185887813568115
10
40.756711959838867
20
20.027937889099121
10
40.674967765808105
20
19.875000715255737
10
40.583395957946777
20
19.727739095687866
10
40.482382774353027
20
19.586782455444336
10
40.372371673583984
20
19.452733993530273
10
40.253829956054688
20
19.326165914535522
10
40.127267837524414
20
19.207624197006226
10
39.99321460723877
20
19.097614288330078
10
39.852256774902344
20
18.996604681015015
10
39.704997539520264
20
18.905031681060791
10
39.552063941955566
20
18.823286294937134
10
39.39410924911499
20
18.751718997955322
10
39.231812953948975
20
18.690633773803711
10
39.065864086151123
20
18.640297651290894
10
38.896985054016113
20
18.600918054580688
10
38.725888729095459
20
18.572672605514526
10
38.553314208984375
20
18.555673360824585
10
38.379993438720703
20
18.549998998641968
10
38.206677436828613
20
18.555673360824585
10
38.034100532531738
20
18.572672605514526
10
37.863004207611084
20
18.600920438766479
10
37.694122791290283
20
18.640297651290894
10
37.528178691864014
20
18.690637350082397
0
ENDSEC
0
SECTION
2
OBJECTS
0
DICTIONARY
5
C
100
AcDbDictionary
3
ACAD_GROUP
350
D
3
ACAD_MLINESTYLE
350
17
0
DICTIONARY
5
D
100
AcDbDictionary
0
DICTIONARY
5
1A
330
C
100
AcDbDictionary
0
DICTIONARY
5
17
100
AcDbDictionary
0
ENDSEC
0
EOF
